<mxfile host="app.diagrams.net" agent="Mozilla/5.0 (Windows NT 10.0; Win64; x64) AppleWebKit/537.36 (KHTML, like Gecko) Chrome/137.0.0.0 Safari/537.36 Edg/137.0.0.0" version="27.1.1">
  <diagram name="Page-1" id="PBlYD3-FgIyKUzTvylIV">
    <mxGraphModel dx="1002" dy="1620" grid="0" gridSize="10" guides="1" tooltips="1" connect="1" arrows="1" fold="1" page="1" pageScale="1" pageWidth="850" pageHeight="1100" background="none" math="0" shadow="0">
      <root>
        <mxCell id="0" />
        <mxCell id="1" parent="0" />
        <mxCell id="b2LfQAn-GC4Qfjlnp6k1-2" value="Region" style="points=[[0,0],[0.25,0],[0.5,0],[0.75,0],[1,0],[1,0.25],[1,0.5],[1,0.75],[1,1],[0.75,1],[0.5,1],[0.25,1],[0,1],[0,0.75],[0,0.5],[0,0.25]];outlineConnect=0;gradientColor=none;html=1;whiteSpace=wrap;fontSize=12;fontStyle=0;container=1;pointerEvents=0;collapsible=0;recursiveResize=0;shape=mxgraph.aws4.group;grIcon=mxgraph.aws4.group_region;strokeColor=#00A4A6;fillColor=none;verticalAlign=top;align=left;spacingLeft=30;fontColor=#147EBA;dashed=1;" parent="1" vertex="1">
          <mxGeometry x="300" y="-165" width="780" height="800" as="geometry" />
        </mxCell>
        <mxCell id="b2LfQAn-GC4Qfjlnp6k1-3" value="" style="fillColor=none;strokeColor=#147EBA;dashed=1;verticalAlign=top;fontStyle=0;fontColor=#147EBA;whiteSpace=wrap;html=1;" parent="b2LfQAn-GC4Qfjlnp6k1-2" vertex="1">
          <mxGeometry x="10" y="40" width="240" height="720" as="geometry" />
        </mxCell>
        <mxCell id="b2LfQAn-GC4Qfjlnp6k1-4" value="Availability Zone" style="fillColor=none;strokeColor=#147EBA;dashed=1;verticalAlign=top;fontStyle=0;fontColor=#147EBA;whiteSpace=wrap;html=1;" parent="b2LfQAn-GC4Qfjlnp6k1-2" vertex="1">
          <mxGeometry x="530" y="40" width="220" height="720" as="geometry" />
        </mxCell>
        <mxCell id="b2LfQAn-GC4Qfjlnp6k1-9" value="Public subnet" style="points=[[0,0],[0.25,0],[0.5,0],[0.75,0],[1,0],[1,0.25],[1,0.5],[1,0.75],[1,1],[0.75,1],[0.5,1],[0.25,1],[0,1],[0,0.75],[0,0.5],[0,0.25]];outlineConnect=0;gradientColor=none;html=1;whiteSpace=wrap;fontSize=12;fontStyle=0;container=1;pointerEvents=0;collapsible=0;recursiveResize=0;shape=mxgraph.aws4.group;grIcon=mxgraph.aws4.group_security_group;grStroke=0;strokeColor=#7AA116;fillColor=#F2F6E8;verticalAlign=top;align=left;spacingLeft=30;fontColor=#248814;dashed=0;" parent="b2LfQAn-GC4Qfjlnp6k1-2" vertex="1">
          <mxGeometry x="550" y="100" width="160" height="260" as="geometry" />
        </mxCell>
        <mxCell id="b2LfQAn-GC4Qfjlnp6k1-11" value="Private subnet" style="points=[[0,0],[0.25,0],[0.5,0],[0.75,0],[1,0],[1,0.25],[1,0.5],[1,0.75],[1,1],[0.75,1],[0.5,1],[0.25,1],[0,1],[0,0.75],[0,0.5],[0,0.25]];outlineConnect=0;gradientColor=none;html=1;whiteSpace=wrap;fontSize=12;fontStyle=0;container=1;pointerEvents=0;collapsible=0;recursiveResize=0;shape=mxgraph.aws4.group;grIcon=mxgraph.aws4.group_security_group;grStroke=0;strokeColor=#00A4A6;fillColor=#E6F6F7;verticalAlign=top;align=left;spacingLeft=30;fontColor=#147EBA;dashed=0;" parent="b2LfQAn-GC4Qfjlnp6k1-2" vertex="1">
          <mxGeometry x="570" y="440" width="130" height="240" as="geometry" />
        </mxCell>
        <mxCell id="b2LfQAn-GC4Qfjlnp6k1-13" value="Route table" style="sketch=0;outlineConnect=0;fontColor=#232F3E;gradientColor=none;strokeColor=#232F3E;fillColor=#ffffff;dashed=0;verticalLabelPosition=bottom;verticalAlign=top;align=center;html=1;fontSize=12;fontStyle=0;aspect=fixed;shape=mxgraph.aws4.resourceIcon;resIcon=mxgraph.aws4.route_table;" parent="b2LfQAn-GC4Qfjlnp6k1-2" vertex="1">
          <mxGeometry x="550" y="130" width="40" height="40" as="geometry" />
        </mxCell>
        <mxCell id="b2LfQAn-GC4Qfjlnp6k1-15" value="Route table" style="sketch=0;outlineConnect=0;fontColor=#232F3E;gradientColor=none;strokeColor=#232F3E;fillColor=#ffffff;dashed=0;verticalLabelPosition=bottom;verticalAlign=top;align=center;html=1;fontSize=12;fontStyle=0;aspect=fixed;shape=mxgraph.aws4.resourceIcon;resIcon=mxgraph.aws4.route_table;" parent="b2LfQAn-GC4Qfjlnp6k1-2" vertex="1">
          <mxGeometry x="580" y="490" width="40" height="40" as="geometry" />
        </mxCell>
        <mxCell id="b2LfQAn-GC4Qfjlnp6k1-5" value="VPC" style="points=[[0,0],[0.25,0],[0.5,0],[0.75,0],[1,0],[1,0.25],[1,0.5],[1,0.75],[1,1],[0.75,1],[0.5,1],[0.25,1],[0,1],[0,0.75],[0,0.5],[0,0.25]];outlineConnect=0;gradientColor=none;html=1;whiteSpace=wrap;fontSize=12;fontStyle=0;container=1;pointerEvents=0;collapsible=0;recursiveResize=0;shape=mxgraph.aws4.group;grIcon=mxgraph.aws4.group_vpc2;strokeColor=#8C4FFF;fillColor=none;verticalAlign=top;align=left;spacingLeft=30;fontColor=#AAB7B8;dashed=0;" parent="b2LfQAn-GC4Qfjlnp6k1-2" vertex="1">
          <mxGeometry x="20" y="70" width="710" height="650" as="geometry" />
        </mxCell>
        <mxCell id="zjNyWYx9qGHiplsEp8ZD-9" style="edgeStyle=orthogonalEdgeStyle;rounded=0;orthogonalLoop=1;jettySize=auto;html=1;" edge="1" parent="b2LfQAn-GC4Qfjlnp6k1-5" source="b2LfQAn-GC4Qfjlnp6k1-6" target="b2LfQAn-GC4Qfjlnp6k1-32">
          <mxGeometry relative="1" as="geometry" />
        </mxCell>
        <mxCell id="b2LfQAn-GC4Qfjlnp6k1-6" value="" style="outlineConnect=0;dashed=0;verticalLabelPosition=bottom;verticalAlign=top;align=center;html=1;shape=mxgraph.aws3.internet_gateway;fillColor=#F58534;gradientColor=none;" parent="b2LfQAn-GC4Qfjlnp6k1-5" vertex="1">
          <mxGeometry x="326.5" y="-42" width="69" height="72" as="geometry" />
        </mxCell>
        <mxCell id="b2LfQAn-GC4Qfjlnp6k1-7" value="Public subnet" style="points=[[0,0],[0.25,0],[0.5,0],[0.75,0],[1,0],[1,0.25],[1,0.5],[1,0.75],[1,1],[0.75,1],[0.5,1],[0.25,1],[0,1],[0,0.75],[0,0.5],[0,0.25]];outlineConnect=0;gradientColor=none;html=1;whiteSpace=wrap;fontSize=12;fontStyle=0;container=1;pointerEvents=0;collapsible=0;recursiveResize=0;shape=mxgraph.aws4.group;grIcon=mxgraph.aws4.group_security_group;grStroke=0;strokeColor=#7AA116;fillColor=#F2F6E8;verticalAlign=top;align=left;spacingLeft=30;fontColor=#248814;dashed=0;" parent="b2LfQAn-GC4Qfjlnp6k1-5" vertex="1">
          <mxGeometry x="20" y="30" width="180" height="260" as="geometry" />
        </mxCell>
        <mxCell id="b2LfQAn-GC4Qfjlnp6k1-45" value="PUBLIC_RT" style="text;html=1;align=center;verticalAlign=middle;whiteSpace=wrap;rounded=0;" parent="b2LfQAn-GC4Qfjlnp6k1-7" vertex="1">
          <mxGeometry x="71" y="25" width="68" height="28" as="geometry" />
        </mxCell>
        <mxCell id="b2LfQAn-GC4Qfjlnp6k1-10" value="Private subnet" style="points=[[0,0],[0.25,0],[0.5,0],[0.75,0],[1,0],[1,0.25],[1,0.5],[1,0.75],[1,1],[0.75,1],[0.5,1],[0.25,1],[0,1],[0,0.75],[0,0.5],[0,0.25]];outlineConnect=0;gradientColor=none;html=1;whiteSpace=wrap;fontSize=12;fontStyle=0;container=1;pointerEvents=0;collapsible=0;recursiveResize=0;shape=mxgraph.aws4.group;grIcon=mxgraph.aws4.group_security_group;grStroke=0;strokeColor=#00A4A6;fillColor=#E6F6F7;verticalAlign=top;align=left;spacingLeft=30;fontColor=#147EBA;dashed=0;" parent="b2LfQAn-GC4Qfjlnp6k1-5" vertex="1">
          <mxGeometry x="30" y="370" width="170" height="240" as="geometry" />
        </mxCell>
        <mxCell id="b2LfQAn-GC4Qfjlnp6k1-18" value="Route table" style="sketch=0;outlineConnect=0;fontColor=#232F3E;gradientColor=none;strokeColor=#232F3E;fillColor=#ffffff;dashed=0;verticalLabelPosition=bottom;verticalAlign=top;align=center;html=1;fontSize=12;fontStyle=0;aspect=fixed;shape=mxgraph.aws4.resourceIcon;resIcon=mxgraph.aws4.route_table;" parent="b2LfQAn-GC4Qfjlnp6k1-10" vertex="1">
          <mxGeometry x="10" y="30" width="60" height="60" as="geometry" />
        </mxCell>
        <mxCell id="b2LfQAn-GC4Qfjlnp6k1-24" value="" style="outlineConnect=0;dashed=0;verticalLabelPosition=bottom;verticalAlign=top;align=center;html=1;shape=mxgraph.aws3.rds_db_instance_read_replica;fillColor=#2E73B8;gradientColor=none;" parent="b2LfQAn-GC4Qfjlnp6k1-5" vertex="1">
          <mxGeometry x="590" y="510" width="49.5" height="66" as="geometry" />
        </mxCell>
        <mxCell id="b2LfQAn-GC4Qfjlnp6k1-33" value="" style="fillColor=none;strokeColor=#DD3522;verticalAlign=top;fontStyle=0;fontColor=#DD3522;whiteSpace=wrap;html=1;" parent="b2LfQAn-GC4Qfjlnp6k1-5" vertex="1">
          <mxGeometry x="70" y="490" width="597" height="118" as="geometry" />
        </mxCell>
        <mxCell id="b2LfQAn-GC4Qfjlnp6k1-44" value="10.0.20.0/24" style="text;html=1;align=center;verticalAlign=middle;whiteSpace=wrap;rounded=0;" parent="b2LfQAn-GC4Qfjlnp6k1-5" vertex="1">
          <mxGeometry x="546" y="348" width="76" height="30" as="geometry" />
        </mxCell>
        <mxCell id="b2LfQAn-GC4Qfjlnp6k1-34" value="RDS-MASTER" style="text;html=1;align=center;verticalAlign=middle;whiteSpace=wrap;rounded=0;" parent="b2LfQAn-GC4Qfjlnp6k1-5" vertex="1">
          <mxGeometry x="80" y="581" width="84" height="23" as="geometry" />
        </mxCell>
        <mxCell id="b2LfQAn-GC4Qfjlnp6k1-51" value="RDS-REPLICA" style="text;html=1;align=center;verticalAlign=middle;whiteSpace=wrap;rounded=0;" parent="b2LfQAn-GC4Qfjlnp6k1-5" vertex="1">
          <mxGeometry x="553" y="579" width="85" height="23" as="geometry" />
        </mxCell>
        <mxCell id="b2LfQAn-GC4Qfjlnp6k1-32" value="Security group" style="fillColor=none;strokeColor=#DD3522;verticalAlign=top;fontStyle=0;fontColor=#DD3522;whiteSpace=wrap;html=1;" parent="b2LfQAn-GC4Qfjlnp6k1-5" vertex="1">
          <mxGeometry x="41" y="120" width="640" height="110" as="geometry" />
        </mxCell>
        <mxCell id="zjNyWYx9qGHiplsEp8ZD-6" value="" style="points=[];aspect=fixed;html=1;align=center;shadow=0;dashed=0;fillColor=#FF6A00;strokeColor=none;shape=mxgraph.alibaba_cloud.alb_application_load_balancer_01;" vertex="1" parent="b2LfQAn-GC4Qfjlnp6k1-5">
          <mxGeometry x="335" y="139" width="47.400000000000006" height="40.2" as="geometry" />
        </mxCell>
        <mxCell id="zjNyWYx9qGHiplsEp8ZD-13" value="ALB" style="text;html=1;align=center;verticalAlign=middle;whiteSpace=wrap;rounded=0;" vertex="1" parent="b2LfQAn-GC4Qfjlnp6k1-5">
          <mxGeometry x="322.4" y="176" width="60" height="30" as="geometry" />
        </mxCell>
        <mxCell id="b2LfQAn-GC4Qfjlnp6k1-23" value="" style="outlineConnect=0;dashed=0;verticalLabelPosition=bottom;verticalAlign=top;align=center;html=1;shape=mxgraph.aws3.vpc_nat_gateway;fillColor=#F58534;gradientColor=none;" parent="b2LfQAn-GC4Qfjlnp6k1-2" vertex="1">
          <mxGeometry x="130" y="300" width="69" height="52" as="geometry" />
        </mxCell>
        <mxCell id="b2LfQAn-GC4Qfjlnp6k1-27" style="edgeStyle=orthogonalEdgeStyle;rounded=0;orthogonalLoop=1;jettySize=auto;html=1;" parent="b2LfQAn-GC4Qfjlnp6k1-2" source="b2LfQAn-GC4Qfjlnp6k1-23" target="b2LfQAn-GC4Qfjlnp6k1-22" edge="1">
          <mxGeometry relative="1" as="geometry" />
        </mxCell>
        <mxCell id="b2LfQAn-GC4Qfjlnp6k1-20" value="" style="outlineConnect=0;dashed=0;verticalLabelPosition=bottom;verticalAlign=top;align=center;html=1;shape=mxgraph.aws3.ec2;fillColor=#F58534;gradientColor=none;" parent="b2LfQAn-GC4Qfjlnp6k1-2" vertex="1">
          <mxGeometry x="605" y="208" width="76.5" height="76.5" as="geometry" />
        </mxCell>
        <mxCell id="b2LfQAn-GC4Qfjlnp6k1-19" value="" style="outlineConnect=0;dashed=0;verticalLabelPosition=bottom;verticalAlign=top;align=center;html=1;shape=mxgraph.aws3.ec2;fillColor=#F58534;gradientColor=none;" parent="b2LfQAn-GC4Qfjlnp6k1-2" vertex="1">
          <mxGeometry x="80" y="200" width="76.5" height="76.5" as="geometry" />
        </mxCell>
        <mxCell id="b2LfQAn-GC4Qfjlnp6k1-22" value="" style="outlineConnect=0;dashed=0;verticalLabelPosition=bottom;verticalAlign=top;align=center;html=1;shape=mxgraph.aws3.rds_db_instance;fillColor=#2E73B8;gradientColor=none;" parent="b2LfQAn-GC4Qfjlnp6k1-2" vertex="1">
          <mxGeometry x="139.75" y="580" width="49.5" height="66" as="geometry" />
        </mxCell>
        <mxCell id="b2LfQAn-GC4Qfjlnp6k1-28" style="edgeStyle=orthogonalEdgeStyle;rounded=0;orthogonalLoop=1;jettySize=auto;html=1;entryX=0;entryY=0.5;entryDx=0;entryDy=0;entryPerimeter=0;" parent="b2LfQAn-GC4Qfjlnp6k1-2" source="b2LfQAn-GC4Qfjlnp6k1-22" target="b2LfQAn-GC4Qfjlnp6k1-24" edge="1">
          <mxGeometry relative="1" as="geometry" />
        </mxCell>
        <mxCell id="b2LfQAn-GC4Qfjlnp6k1-12" value="Route table" style="sketch=0;outlineConnect=0;fontColor=#232F3E;gradientColor=none;strokeColor=#232F3E;fillColor=#ffffff;dashed=0;verticalLabelPosition=bottom;verticalAlign=top;align=center;html=1;fontSize=12;fontStyle=0;aspect=fixed;shape=mxgraph.aws4.resourceIcon;resIcon=mxgraph.aws4.route_table;" parent="b2LfQAn-GC4Qfjlnp6k1-2" vertex="1">
          <mxGeometry x="66" y="119" width="40" height="40" as="geometry" />
        </mxCell>
        <mxCell id="b2LfQAn-GC4Qfjlnp6k1-36" value="us-east-1" style="text;html=1;align=center;verticalAlign=middle;whiteSpace=wrap;rounded=0;" parent="b2LfQAn-GC4Qfjlnp6k1-2" vertex="1">
          <mxGeometry x="73" y="2" width="60" height="30" as="geometry" />
        </mxCell>
        <mxCell id="b2LfQAn-GC4Qfjlnp6k1-37" value="AZ-1" style="text;html=1;align=center;verticalAlign=middle;whiteSpace=wrap;rounded=0;" parent="b2LfQAn-GC4Qfjlnp6k1-2" vertex="1">
          <mxGeometry x="52" y="40" width="60" height="30" as="geometry" />
        </mxCell>
        <mxCell id="b2LfQAn-GC4Qfjlnp6k1-38" value="AZ-2" style="text;html=1;align=center;verticalAlign=middle;whiteSpace=wrap;rounded=0;" parent="b2LfQAn-GC4Qfjlnp6k1-2" vertex="1">
          <mxGeometry x="530" y="40" width="60" height="30" as="geometry" />
        </mxCell>
        <mxCell id="b2LfQAn-GC4Qfjlnp6k1-39" value="0.0.0.0/0&lt;div&gt;IGW&lt;/div&gt;" style="text;html=1;align=center;verticalAlign=middle;whiteSpace=wrap;rounded=0;" parent="b2LfQAn-GC4Qfjlnp6k1-2" vertex="1">
          <mxGeometry x="401" y="17" width="60" height="30" as="geometry" />
        </mxCell>
        <mxCell id="b2LfQAn-GC4Qfjlnp6k1-40" value="10.0.0.0/16" style="text;html=1;align=center;verticalAlign=middle;whiteSpace=wrap;rounded=0;" parent="b2LfQAn-GC4Qfjlnp6k1-2" vertex="1">
          <mxGeometry x="100" y="47" width="66" height="30" as="geometry" />
        </mxCell>
        <mxCell id="b2LfQAn-GC4Qfjlnp6k1-41" value="10.0.1.0/24" style="text;html=1;align=center;verticalAlign=middle;whiteSpace=wrap;rounded=0;" parent="b2LfQAn-GC4Qfjlnp6k1-2" vertex="1">
          <mxGeometry x="97" y="80" width="66" height="30" as="geometry" />
        </mxCell>
        <mxCell id="b2LfQAn-GC4Qfjlnp6k1-42" value="10.0.2.0/24" style="text;html=1;align=center;verticalAlign=middle;whiteSpace=wrap;rounded=0;" parent="b2LfQAn-GC4Qfjlnp6k1-2" vertex="1">
          <mxGeometry x="657" y="74" width="66" height="30" as="geometry" />
        </mxCell>
        <mxCell id="b2LfQAn-GC4Qfjlnp6k1-43" value="10.0.10.0/24" style="text;html=1;align=center;verticalAlign=middle;whiteSpace=wrap;rounded=0;" parent="b2LfQAn-GC4Qfjlnp6k1-2" vertex="1">
          <mxGeometry x="60" y="417" width="66" height="30" as="geometry" />
        </mxCell>
        <mxCell id="b2LfQAn-GC4Qfjlnp6k1-46" value="PUBLIC_RT" style="text;html=1;align=center;verticalAlign=middle;whiteSpace=wrap;rounded=0;" parent="b2LfQAn-GC4Qfjlnp6k1-2" vertex="1">
          <mxGeometry x="578" y="121" width="68" height="22" as="geometry" />
        </mxCell>
        <mxCell id="b2LfQAn-GC4Qfjlnp6k1-47" value="PRIVATE_RT" style="text;html=1;align=center;verticalAlign=middle;whiteSpace=wrap;rounded=0;" parent="b2LfQAn-GC4Qfjlnp6k1-2" vertex="1">
          <mxGeometry x="99" y="457" width="59" height="29" as="geometry" />
        </mxCell>
        <mxCell id="b2LfQAn-GC4Qfjlnp6k1-48" value="PRIVATE_RT" style="text;html=1;align=center;verticalAlign=middle;whiteSpace=wrap;rounded=0;" parent="b2LfQAn-GC4Qfjlnp6k1-2" vertex="1">
          <mxGeometry x="590" y="469" width="59" height="29" as="geometry" />
        </mxCell>
        <mxCell id="b2LfQAn-GC4Qfjlnp6k1-49" value="WEB-1" style="text;html=1;align=center;verticalAlign=middle;whiteSpace=wrap;rounded=0;" parent="b2LfQAn-GC4Qfjlnp6k1-2" vertex="1">
          <mxGeometry x="112" y="219" width="60" height="30" as="geometry" />
        </mxCell>
        <mxCell id="b2LfQAn-GC4Qfjlnp6k1-52" value="NATGW" style="text;html=1;align=center;verticalAlign=middle;whiteSpace=wrap;rounded=0;" parent="b2LfQAn-GC4Qfjlnp6k1-2" vertex="1">
          <mxGeometry x="60" y="320" width="66" height="30" as="geometry" />
        </mxCell>
        <mxCell id="zjNyWYx9qGHiplsEp8ZD-5" value="WEB-2" style="text;html=1;align=center;verticalAlign=middle;whiteSpace=wrap;rounded=0;" vertex="1" parent="b2LfQAn-GC4Qfjlnp6k1-2">
          <mxGeometry x="636" y="234" width="60" height="30" as="geometry" />
        </mxCell>
        <mxCell id="zjNyWYx9qGHiplsEp8ZD-10" style="edgeStyle=orthogonalEdgeStyle;rounded=0;orthogonalLoop=1;jettySize=auto;html=1;entryX=0.847;entryY=0.337;entryDx=0;entryDy=0;entryPerimeter=0;" edge="1" parent="b2LfQAn-GC4Qfjlnp6k1-2" source="zjNyWYx9qGHiplsEp8ZD-6" target="b2LfQAn-GC4Qfjlnp6k1-49">
          <mxGeometry relative="1" as="geometry" />
        </mxCell>
        <mxCell id="zjNyWYx9qGHiplsEp8ZD-11" style="edgeStyle=orthogonalEdgeStyle;rounded=0;orthogonalLoop=1;jettySize=auto;html=1;entryX=0.456;entryY=0.276;entryDx=0;entryDy=0;entryPerimeter=0;" edge="1" parent="b2LfQAn-GC4Qfjlnp6k1-2" source="zjNyWYx9qGHiplsEp8ZD-6" target="b2LfQAn-GC4Qfjlnp6k1-20">
          <mxGeometry relative="1" as="geometry" />
        </mxCell>
        <mxCell id="zjNyWYx9qGHiplsEp8ZD-8" style="edgeStyle=orthogonalEdgeStyle;rounded=0;orthogonalLoop=1;jettySize=auto;html=1;" edge="1" parent="1" source="zjNyWYx9qGHiplsEp8ZD-7" target="b2LfQAn-GC4Qfjlnp6k1-6">
          <mxGeometry relative="1" as="geometry" />
        </mxCell>
        <mxCell id="zjNyWYx9qGHiplsEp8ZD-7" value="" style="shape=actor;whiteSpace=wrap;html=1;" vertex="1" parent="1">
          <mxGeometry x="661" y="-441" width="40" height="60" as="geometry" />
        </mxCell>
        <mxCell id="zjNyWYx9qGHiplsEp8ZD-12" value="user" style="text;html=1;align=center;verticalAlign=middle;whiteSpace=wrap;rounded=0;" vertex="1" parent="1">
          <mxGeometry x="694" y="-438" width="60" height="30" as="geometry" />
        </mxCell>
      </root>
    </mxGraphModel>
  </diagram>
</mxfile>
